#!OML:ASF F:\VICON\USERDATA\INSTALL\rory3\rory3.ASF
:FULLY-SPECIFIED
:DEGREES
1
root 0.5935592323729483 18.21972697533968 -32.402558538069144 -1.3611206027551694 -1.3378966016391383 0.2127534959780104
lfemur -12.513940105023831 0.8399113778326333 -24.5540833153066
ltibia 30.513926323844615
lfoot -8.54006744126419 -9.616264704020015
ltoes -7.879569631712753
rfemur -21.178920609272794 -3.5328994306030688 22.887393629509674
rtibia 94.41015547246062
rfoot 5.763961164418194 -3.176901026932479
rtoes -1.4044601032063442
lowerback 15.060670225621806 0.7267830740279664 -0.5694738749417534
upperback 1.1383316858496062 1.0033058321628274 0.4009218317087273
thorax -7.120830328690756 0.49839050624400166 0.8486377850480401
lowerneck -18.30324318163701 -3.324946086345333 -1.788933755126225
upperneck 20.02550954483595 -3.951435125135288 -0.06065820948287359
head 9.307264348231312 -2.0314461266785626 -0.29143139059118944
lclavicle -1.6751860736652492e-15 -3.591867720311184e-15
lhumerus -44.618857563414124 -4.237927748669711 89.19778103103893
lradius 61.853380819869706
lwrist 11.630275158732513
lhand -30.173287550424526 9.04111379091149
lfingers 7.125019999999999
lthumb -3.4844942167985997 38.98540503688715
rclavicle -1.6751860736652492e-15 -3.591867720311184e-15
rhumerus -35.32854243402718 -3.8020447937508117 -89.67336644654411
rradius 71.12194486138173
rwrist -5.209986111326808
rhand -18.221006496975566 32.616374394459534
rfingers 7.125019999999999
rthumb 8.056957403598172 2.7825356709345668
2
root 0.5966923627720437 18.071491135646678 -31.58446987270529 -1.3784686450767905 1.599083461841468 0.6067881288032888
lfemur -10.34327867443995 1.2295686738581717 -25.18522469373741
ltibia 32.53861550636325
lfoot -14.792875788441837 -10.401763982777606
ltoes -9.698883020880096
rfemur -27.365046868750895 -5.49312878681109 22.565555060017665
rtibia 90.92097783943896
rfoot -0.5797379024573914 -3.6155173306466977
rtoes -2.358033653100139
lowerback 15.749513835167932 -0.07183317241473336 -1.882976158334277
upperback 0.30727439973309795 -0.2457185764488048 1.1635785386892357
thorax -8.134017155853968 -0.03733056049133188 2.405196691797709
lowerneck -13.512316882160217 -2.90092348326776 -2.4815734810248715
upperneck 19.0009381118461 -3.1992302191633177 -0.06982703353226571
head 8.495571867707204 -1.7822930730867 0.026440946860026016
lclavicle -1.6751861025929984e-15 -3.591867738002225e-15
lhumerus -42.816162842230284 -6.37153259283246 90.34756417582324
lradius 64.8133856719365
lwrist 15.063676011225757
lhand -30.199676786918435 11.70383449646975
lfingers 7.125019999999999
lthumb -3.509979735954631 41.647595998463444
rclavicle -1.6751861025929984e-15 -3.591867738002225e-15
rhumerus -38.719057325952804 -2.6335691893104656 -88.8631242729006
rradius 71.8974698509591
rwrist -6.43508397484943
rhand -18.024304915825624 32.34989771321525
rfingers 7.125019999999999
rthumb 8.246717704012221 2.528167460409183
3
root 0.6003448245872559 17.91179505802951 -30.740948942335855 -1.048105182329665 4.463439853689563 1.3310835531212288
lfemur -7.632184641415818 1.3296510845291911 -26.10713042347482
ltibia 33.09911001554369
lfoot -20.038080230942377 -11.59470878317807
ltoes -9.02028348142499
rfemur -32.057410447453314 -7.102804599612027 21.777378891497488
rtibia 82.70787185129882
rfoot -5.42435104075568 -6.603491362587462
rtoes -0.21164091918715844
lowerback 15.080557712557344 -0.3804392709639762 -2.3399991592464384
upperback 1.4981822987662843 -0.7432904083036 0.6106954697008412
thorax -6.6604399075125285 -0.2907750877994185 2.282457366615386
lowerneck -20.332405167798687 -3.5003710028270314 -1.7257735639174288
upperneck 19.461164511287457 -4.287981748869809 0.32093690491763893
head 9.34340799942124 -2.1273203759453048 -0.23081921920330645
lclavicle -1.6751861546126735e-15 -3.591867738002225e-15
lhumerus -34.881261329056585 -11.129651238520825 90.69220496222789
lradius 68.13185588059268
lwrist 19.030185660518598
lhand -28.955414782928578 18.36758766976753
lfingers 7.125019999999999
lthumb -2.3083871542605623 48.31513839633655
rclavicle -1.6751861546126735e-15 -3.591867738002225e-15
rhumerus -38.844525556467005 -4.601761981345712 -88.84974561521453
rradius 71.4899288599603
rwrist -6.292122499745568
rhand -17.982470650738648 32.37607501378699
rfingers 7.125019999999999
rthumb 8.28714216452645 2.556838167072606
4
root 0.5884526937624674 17.796694291108228 -29.903866129636917 -0.5024583243139886 5.570679390883342 1.9596451296782167
lfemur -4.187608248869605 1.7285297974801594 -26.845026360439533
ltibia 31.53374630269346
lfoot -22.274005885820984 -12.105396583245899
ltoes -6.712587675086479
rfemur -35.34696303647245 -6.500634577834791 21.09611208344581
rtibia 69.84614657759957
rfoot -5.147450112066565 -10.656607569274922
rtoes -1.4865539989802246
lowerback 15.678763823667202 -0.6082821962470009 -3.2890083687145135
upperback 0.8094675340258681 -1.189986370900227 0.7244524406070034
thorax -7.4915512562342625 -0.46225166904166226 2.990294985955792
lowerneck -18.759501970125978 -3.5757021982602755 -1.9852078910563844
upperneck 19.240074020763682 -4.288528693071088 0.41848913718739156
head 9.115895277957785 -2.1777653518118587 -0.1096501399956264
lclavicle -1.6751860860907793e-15 -3.59186773863405e-15
lhumerus -31.951121493539397 -12.760918360295705 90.00535315383406
lradius 71.72831451310552
lwrist 21.15194394573143
lhand -30.804161330039996 10.313497811984597
lfingers 7.125019999999999
lthumb -4.093765862810679 40.25346482044243
rclavicle -1.6751860860907793e-15 -3.59186773863405e-15
rhumerus -41.59078626361669 -5.586521049762017 -87.62195340150916
rradius 70.64077864653294
rwrist -5.97377655091069
rhand -17.44774271016061 32.69347470775607
rfingers 7.125019999999999
rthumb 8.803220945298236 2.9051043651264754
5
root 0.5706924036339346 17.848514546134172 -29.038080986883216 0.5657824776080397 5.9108247617117415 2.3000976429085798
lfemur 0.10792210575576 1.7870530317131006 -27.42934040531705
ltibia 26.9209109305125
lfoot -20.904640420638906 -11.639831773122609
ltoes -2.8608790120609333
rfemur -36.40220839614755 -2.399545696898604 19.674969852809795
rtibia 52.44016143869738
rfoot -1.7169796729695537 -13.051879876986174
rtoes 8.245914093962135
lowerback 14.309172456715501 -0.8267055347646532 -3.820079085878746
upperback 0.21405501779340846 -1.526956414038745 0.9951878291644441
thorax -7.434125076373568 -0.6010096206701746 3.542364335650981
lowerneck -16.764778499926926 -3.454807013577228 -2.462756183766329
upperneck 18.481771631197923 -4.030019315840068 0.7413342057262966
head 8.683643773148589 -2.0899786151714395 0.1790942474653382
lclavicle -1.675186047948693e-15 -3.591867765170659e-15
lhumerus -29.1456137909695 -13.21878905539154 88.98012659965792
lradius 75.06442905965514
lwrist 22.569487843641973
lhand -32.01881598485955 12.751068140438035
lfingers 7.125019999999999
lthumb -5.266754816639297 42.67907476288431
rclavicle -1.675186047948693e-15 -3.591867765170659e-15
rhumerus -43.76309932831395 -6.545714054282939 -86.29563728690648
rradius 68.8391506420965
rwrist -5.433197158786182
rhand -17.651952994644564 32.27995514077675
rfingers 7.125019999999999
rthumb 8.60614000357363 2.4805257727806516
6
root 0.5542563041447058 17.74337921814381 -28.15246009426444 1.611880188242226 5.458841178435559 2.422122592112599
lfemur 4.3006908626818365 0.577656071985096 -28.219220756963143
ltibia 22.941128663273755
lfoot -17.795078447084773 -9.610240288664137
ltoes 3.8371429861406465
rfemur -36.213165793538685 5.233603587889711 17.161395350967958
rtibia 33.98954075790305
rfoot 3.4031559866356957 -15.044271348544614
rtoes 18.94684266930059
lowerback 13.724693856899105 -0.9386422221516071 -3.768553223345671
upperback -0.3743296791352283 -1.661601864019832 1.201665031835683
thorax -7.740669109346309 -0.6507077229585456 3.6986289106584165
lowerneck -17.72592756819778 -2.8661989849258784 -2.5222495589036296
upperneck 18.268470688377498 -3.2321445742384376 0.5714092625654786
head 8.71140305056424 -1.6803951773364523 0.2093952461063396
lclavicle -1.6751860875427516e-15 -3.591867764538834e-15
lhumerus -26.944838560059676 -12.991911330260063 87.94300711261728
lradius 78.05070949909863
lwrist 24.597641379883683
lhand -34.62040598848543 11.751749987576936
lfingers 7.125019999999999
lthumb -7.778646166913818 41.63824117960561
rclavicle -1.6751860875427516e-15 -3.591867764538834e-15
rhumerus -45.546073973671504 -7.701173072101762 -84.8796337943783
rradius 66.22553697980202
rwrist -3.6353181313038423
rhand -20.512774297200405 27.69340544094763
rfingers 7.125019999999999
rthumb 5.844861654080388 -2.2403328769988597
7
root 0.5200339458240609 17.5266310353462 -27.244889527580682 2.0942822099628318 5.64737087258959 2.0135434306608104
lfemur 8.061297681384335 -0.1609496301236244 -28.015613359471438
ltibia 21.48892093748439
lfoot -18.00656718839101 -7.7411605792469285
ltoes 3.397146686143625
rfemur -35.98227642335555 11.324907826929719 15.287759788976336
rtibia 22.858698387085497
rfoot -2.800714346335539 -17.875421804243494
rtoes 4.967396808483246
lowerback 13.217476830131627 -1.2727444349963382 -3.3691768738304133
upperback -0.7865790730735032 -2.0467119595834387 1.8068865480412981
thorax -7.870533080606767 -0.8282832514939831 4.017949704557744
lowerneck -16.291613428789784 -2.21392945713605 -3.0730299426568672
upperneck 17.52509801154307 -2.189101988282088 0.47142448513976476
head 8.336052362732206 -1.227998311062945 0.44071777416103186
lclavicle -1.6751861814183463e-15 -3.591867748743237e-15
lhumerus -26.565359366608 -12.274076341576372 87.48838818477242
lradius 81.10858113119542
lwrist 26.236562761160272
lhand -33.49714803944708 9.266001909796003
lfingers 7.125019999999999
lthumb -6.694169952451757 39.17355069478432
rclavicle -1.6751861814183463e-15 -3.591867748743237e-15
rhumerus -47.03931097460938 -8.303689066187053 -83.39442393755519
rradius 64.10505539961606
rwrist -2.0039483951610606
rhand -20.25653934843987 24.821877939455984
rfingers 7.125019999999999
rthumb 6.092302229641071 -5.089610152003308
8
root 0.4477117479174524 17.219695669767248 -26.32381364891735 1.7122802269955584 4.584605048834535 1.7322074124663702
lfemur 11.42758699720909 -0.7896072419836359 -27.77817482882349
ltibia 23.008532140272724
lfoot -19.069542738775127 -6.251997510947679
ltoes -2.2389602823376493
rfemur -36.1351358545725 8.741090309684907 16.948789781447957
rtibia 24.36499212182727
rfoot -1.1435789244396108 -10.838993690611874
rtoes 4.9225645208096855
lowerback 15.426387280070527 -1.5043287110445434 -3.797338255010661
upperback -1.6024986309176064 -2.4266881584376394 2.697590395048089
thorax -9.45337371442124 -0.9347183917457311 5.1247393079400165
lowerneck -13.763196601907323 -0.9818042923633228 -3.5591341395336347
upperneck 16.17453817680363 -0.379184716271892 -0.36189764440255767
head 7.655191020248578 -0.4234705619893615 0.49215815365804605
lclavicle -1.6751859955660296e-15 -3.591867748743237e-15
lhumerus -29.560605523176356 -10.72563862580058 87.48429585033729
lradius 83.68752577697147
lwrist 27.28102815892322
lhand -34.410901333010756 10.723577626490853
lfingers 7.125019999999999
lthumb -7.576359917779186 40.614281301117046
rclavicle -1.6751859955660296e-15 -3.591867748743237e-15
rhumerus -48.832455468086465 -8.647037466210083 -81.3265764625203
rradius 61.77130052056285
rwrist 0.023279641924318195
rhand -19.37573996086693 28.549280496562265
rfingers 7.125019999999999
rthumb 6.9424759930060596 -1.3326322484341033
